<?xml version="1.0" encoding="UTF-8" standalone="no"?>
<svg
   xmlns:osb="http://www.openswatchbook.org/uri/2009/osb"
   xmlns:dc="http://purl.org/dc/elements/1.1/"
   xmlns:cc="http://creativecommons.org/ns#"
   xmlns:rdf="http://www.w3.org/1999/02/22-rdf-syntax-ns#"
   xmlns:svg="http://www.w3.org/2000/svg"
   xmlns="http://www.w3.org/2000/svg"
   xmlns:sodipodi="http://sodipodi.sourceforge.net/DTD/sodipodi-0.dtd"
   xmlns:inkscape="http://www.inkscape.org/namespaces/inkscape"
   width="210mm"
   height="297mm"
   viewBox="0 0 210 297"
   version="1.1"
   id="svg8"
   inkscape:version="1.0.1 (3bc2e813f5, 2020-09-07)"
   sodipodi:docname="AAA.svg">
  <defs
     id="defs2">
    <linearGradient
       id="linearGradient864"
       osb:paint="gradient">
      <stop
         style="stop-color:#5e2f62;stop-opacity:1;"
         offset="0"
         id="stop860" />
      <stop
         style="stop-color:#5e2f62;stop-opacity:0;"
         offset="1"
         id="stop862" />
    </linearGradient>
    <inkscape:path-effect
       effect="bspline"
       id="path-effect856"
       is_visible="true"
       lpeversion="1"
       weight="33.333333"
       steps="2"
       helper_size="0"
       apply_no_weight="true"
       apply_with_weight="true"
       only_selected="false" />
    <rect
       x="71.464515"
       y="77.640171"
       width="42.88288"
       height="58.301189"
       id="rect12" />
  </defs>
  <sodipodi:namedview
     id="base"
     pagecolor="#ffffff"
     bordercolor="#666666"
     borderopacity="1.0"
     inkscape:pageopacity="0.0"
     inkscape:pageshadow="2"
     inkscape:zoom="0.35"
     inkscape:cx="54.23479"
     inkscape:cy="479.80851"
     inkscape:document-units="mm"
     inkscape:current-layer="layer1"
     inkscape:document-rotation="0"
     showgrid="false"
     inkscape:snap-nodes="true"
     inkscape:window-width="1366"
     inkscape:window-height="688"
     inkscape:window-x="0"
     inkscape:window-y="0"
     inkscape:window-maximized="1" />
  <metadata
     id="metadata5">
    <rdf:RDF>
      <cc:Work
         rdf:about="">
        <dc:format>image/svg+xml</dc:format>
        <dc:type
           rdf:resource="http://purl.org/dc/dcmitype/StillImage" />
        <dc:title />
      </cc:Work>
    </rdf:RDF>
  </metadata>
  <g
     inkscape:label="Capa 1"
     inkscape:groupmode="layer"
     id="layer1"
     style="display:inline">
    <g
       id="g2814"
       transform="matrix(2.1741486,1.4070219,-1.274549,2.4001232,-97.533707,-158.86446)"
       style="opacity:1;fill:#8a6899;fill-opacity:1;stroke:#8a6899;stroke-opacity:0.972549">
      <path
         style="color:#000000;font-style:normal;font-variant:normal;font-weight:normal;font-stretch:normal;font-size:medium;line-height:normal;font-family:sans-serif;font-variant-ligatures:normal;font-variant-position:normal;font-variant-caps:normal;font-variant-numeric:normal;font-variant-alternates:normal;font-variant-east-asian:normal;font-feature-settings:normal;font-variation-settings:normal;text-indent:0;text-align:start;text-decoration:none;text-decoration-line:none;text-decoration-style:solid;text-decoration-color:#000000;letter-spacing:normal;word-spacing:normal;text-transform:none;writing-mode:lr-tb;direction:ltr;text-orientation:mixed;dominant-baseline:auto;baseline-shift:baseline;text-anchor:start;white-space:normal;shape-padding:0;shape-margin:0;inline-size:0;clip-rule:nonzero;display:inline;overflow:visible;visibility:visible;isolation:auto;mix-blend-mode:normal;color-interpolation:sRGB;color-interpolation-filters:linearRGB;solid-color:#000000;solid-opacity:1;vector-effect:none;fill:#8a6899;fill-opacity:1;fill-rule:nonzero;stroke:#8a6899;stroke-width:0.950788;stroke-linecap:butt;stroke-linejoin:miter;stroke-miterlimit:4;stroke-dasharray:none;stroke-dashoffset:0;stroke-opacity:0.972549;color-rendering:auto;image-rendering:auto;shape-rendering:auto;text-rendering:auto;enable-background:accumulate;stop-color:#000000;stop-opacity:1"
         d="m 134.96489,46.007782 c 0,5.135143 -7.05751,10.470986 -15.34409,8.995525 -7.81463,-1.391429 -13.79935,-6.94895 -15.13626,-8.995525 -2.80839,-4.299147 9.61441,28.327013 18.03133,28.327014 8.41691,2e-6 12.44902,-33.462157 12.44902,-28.327014 z"
         id="path2816"
         sodipodi:nodetypes="sssss" />
      <path
         style="color:#000000;font-style:normal;font-variant:normal;font-weight:normal;font-stretch:normal;font-size:medium;line-height:normal;font-family:sans-serif;font-variant-ligatures:normal;font-variant-position:normal;font-variant-caps:normal;font-variant-numeric:normal;font-variant-alternates:normal;font-variant-east-asian:normal;font-feature-settings:normal;font-variation-settings:normal;text-indent:0;text-align:start;text-decoration:none;text-decoration-line:none;text-decoration-style:solid;text-decoration-color:#000000;letter-spacing:normal;word-spacing:normal;text-transform:none;writing-mode:lr-tb;direction:ltr;text-orientation:mixed;dominant-baseline:auto;baseline-shift:baseline;text-anchor:start;white-space:normal;shape-padding:0;shape-margin:0;inline-size:0;clip-rule:nonzero;display:inline;overflow:visible;visibility:visible;isolation:auto;mix-blend-mode:normal;color-interpolation:sRGB;color-interpolation-filters:linearRGB;solid-color:#000000;solid-opacity:1;vector-effect:none;fill:#8a6899;fill-opacity:1;fill-rule:nonzero;stroke:#8a6899;stroke-width:0.950788;stroke-linecap:butt;stroke-linejoin:miter;stroke-miterlimit:4;stroke-dasharray:none;stroke-dashoffset:0;stroke-opacity:0.972549;color-rendering:auto;image-rendering:auto;shape-rendering:auto;text-rendering:auto;enable-background:accumulate;stop-color:#000000;stop-opacity:1"
         d="m 121.0174,44.308478 c -4.28683,-10e-7 -10.56906,-6.032985 -13.41877,-4.294384 -2.84971,1.7386 -3.58886,3.215588 -3.58886,5.993718 0,2.778131 1.84169,5.241869 4.6914,6.980469 2.84971,1.738601 6.73661,2.79297 11.02344,2.792969 4.28683,-10e-7 8.17373,-1.054368 11.02344,-2.792969 2.8497,-1.7386 4.6914,-4.202339 4.6914,-6.980469 0,-2.778129 -0.91346,-5.825505 -3.76316,-7.564105 -2.84971,-1.738601 -6.37206,5.864772 -10.65889,5.864771 z m -0.84378,-1.365291 c 4.13008,10e-7 7.41414,-4.729957 10.08029,-3.103343 2.66615,1.626614 4.23632,3.810955 4.23632,6.167968 0,2.357014 -1.57017,4.541355 -4.23632,6.167969 -2.66615,1.626614 -6.39922,2.654296 -10.5293,2.654297 -4.13009,10e-7 -7.86314,-1.027683 -10.5293,-2.654297 -2.66615,-1.626614 -4.23633,-3.810954 -4.23633,-6.167969 0,-2.357014 1.9908,-2.591005 4.65695,-4.217619 2.66616,-1.626614 6.4276,1.152993 10.55769,1.152994 z"
         id="path2818"
         sodipodi:nodetypes="ssssssssssssssssss" />
    </g>
    <g
       aria-label="A"
       id="text10"
       style="font-style:normal;font-variant:normal;font-weight:normal;font-stretch:normal;font-size:28.2222px;line-height:1.25;font-family:Lobster;-inkscape-font-specification:'Lobster, Normal';font-variant-ligatures:normal;font-variant-caps:normal;font-variant-numeric:normal;font-variant-east-asian:normal;white-space:pre;shape-inside:url(#rect12);fill:#5e2f62;fill-opacity:1;stroke:none;stroke-opacity:1"
       transform="matrix(0.99401557,0.19740384,-0.1719098,1.0549378,18.773928,50.405644)">
      <path
         d="m 78.243603,107.57728 c -0.422049,-0.55362 0.721879,1.23927 0.195065,1.12639 -0.526816,-0.11289 -3.643602,-2.29519 -4.038713,-2.72793 -0.376297,-0.43275 -0.564445,-1.10067 -0.564445,-2.00378 0,-1.26059 0.376296,-2.95393 1.128889,-5.080002 0.771407,-2.126074 1.778,-4.261556 3.019778,-6.406445 -0.940741,0.05645 -1.683926,0.197558 -2.229556,0.423334 -0.545629,0.225777 -0.903111,0.573851 -1.072444,1.044222 0.07526,0 0.150519,0.09407 0.225778,0.282222 0.09407,0.188148 0.141111,0.385704 0.141111,0.592667 0,0.338667 -0.150519,0.611481 -0.451556,0.818444 -0.301037,0.188148 -0.677333,0.282222 -1.128889,0.282222 -0.526815,0 -0.950148,-0.141111 -1.269999,-0.423333 -0.319852,-0.282222 -0.479778,-0.68674 -0.479778,-1.213555 0,-0.639704 0.244592,-1.222963 0.733777,-1.749778 0.508,-0.526815 1.204148,-0.940741 2.088445,-1.241778 0.884296,-0.319852 1.862666,-0.479778 2.935111,-0.479778 0.395111,0 0.884296,0.02822 1.467555,0.08467 1.542815,-2.445926 3.170297,-4.440296 4.882445,-5.983111 1.730963,-1.561629 3.377259,-2.342444 4.938888,-2.342444 0.903111,0 1.646297,0.131704 2.229556,0.395111 l -4.430889,20.771552 -2.299,-1.87742 0.408111,-8.367244 c -0.696148,-0.319851 -1.335852,-0.555036 -1.919111,-0.705555 -0.583259,-0.150519 -1.204148,-0.254 -1.862666,-0.310445 -1.072445,2.314223 -1.956741,4.684889 -2.652889,7.112 -0.677333,2.408294 -0.37158,6.078574 -0.02021,7.484054 0.395111,1.58044 1.084521,1.8847 0.824407,1.5435 z m 9.194534,-22.444336 c -0.809037,0.432741 -2.459592,1.605253 -3.343889,2.790585 -0.865481,1.166519 -1.782664,1.67391 -2.610516,3.348429 1.354667,0.263407 2.50237,0.592667 3.443111,0.987778 z"
         style="font-style:normal;font-variant:normal;font-weight:normal;font-stretch:normal;font-size:28.2222px;font-family:Lobster;-inkscape-font-specification:'Lobster, Normal';font-variant-ligatures:normal;font-variant-caps:normal;font-variant-numeric:normal;font-variant-east-asian:normal;fill:#5e2f62;fill-opacity:1;stroke:none;stroke-opacity:1"
         id="path839"
         sodipodi:nodetypes="sscsccsccscsssccsccsccccsccsssccccc" />
    </g>
  </g>
</svg>
